# xmcd CD database file generated by Grip 3.3.1
# 
# Track frame offsets:
#       182
#       27147
#       52032
#       74007
#       100385
#       129012
#       156920
#       176152
#       200485
#       218490
# 
# Disc length: 3197 seconds
# 
# Revision: 1
# Processed by: cddbd v1.5.2PL0 Copyright (c) Steve Scherf et al.
# Submitted via: Grip 3.3.1
# 
DISCID=8d0c7b0a
DTITLE=Aydin Esen - Aydin Esen
DYEAR=1990
DGENRE=Jazz
TTITLE0=Beauty
TTITLE1=Good Times
TTITLE2=Deep
TTITLE3=Curious Eyes
TTITLE4=The Real Thing
TTITLE5=It's Up To You
TTITLE6=Miss K
TTITLE7=Pictures
TTITLE8=At a Glance
TTITLE9=Around Me
EXTD=YEAR: 1990
EXTT0=
EXTT1=
EXTT2=
EXTT3=
EXTT4=
EXTT5=
EXTT6=
EXTT7=
EXTT8=
EXTT9=
PLAYORDER=
